<svg xmlns="http://www.w3.org/2000/svg" xmlns:xlink="http://www.w3.org/1999/xlink" version="1.1" x="0px" y="0px" viewBox="0 0 100 125" style="enable-background:new 0 0 100 100;" xml:space="preserve"><style type="text/css">
	.st0{fill:#FFFFFF;}
</style><g><path d="M23.5,80.4c-1,2.6-2.6,4.3-3.9,3.7c-1.2-0.6-2.3-1.7-2.8-2.9c-0.5-1.2,1.2-2.7,3.4-3.5c0.1-0.6,0.1-1.2,0.3-1.7   c0.5-1.6,2.2-2.6,4-2.3c0.7,0.1,1.2,0,1.7-0.6c0.4-0.5,0.8-0.9,1.3-1.3c1-0.9,1.6-1.7,1.4-3.3c-0.4-2.6,2.3-4.7,5-4.1   c0.7,0.2,1.2,0,1.7-0.5c1.6-1.7,3.3-3.3,4.9-4.9c0.3-0.4,0.6-0.9,0.6-1.4c0.1-1.8,1.3-3,3.1-3.1c0.5,0,1.1-0.3,1.4-0.6   c2.6-2.5,5.1-5,7.6-7.6c0.3-0.3,0.5-0.9,0.5-1.4c0-2,1.4-3.4,3.4-3.3c0.4,0,1-0.2,1.3-0.5c1.9-1.8,3.8-3.7,5.7-5.7   c0.3-0.4,0.6-0.9,0.6-1.4c0.1-1.8,1.2-2.9,3.1-3c0.5,0,1-0.2,1.3-0.5c2-1.9,4-3.9,5.9-5.8c0.3-0.3,0.5-0.9,0.5-1.4c0-1.8,1.2-3,3-3   c0.5,0,1.1-0.2,1.4-0.5c1.4-1.3,2.8-2.7,4.2-4.1c0.2-0.2,0.3-0.4,0.5-0.5c0.6-0.2,1.3-0.3,2-0.4c-0.2,0.6-0.2,1.4-0.6,1.8   c-1.4,1.6-3,3.1-4.5,4.6c-0.4,0.4-0.7,0.8-0.6,1.5c0.3,1.9-1.2,3.3-3.1,3.1c-0.5,0-1.1,0.2-1.4,0.5c-1.9,1.8-3.8,3.7-5.6,5.6   c-0.3,0.3-0.5,1-0.4,1.4c0.3,2.1-1.3,3.8-3.4,3.5c-0.5-0.1-1.1,0.1-1.4,0.4c-1.9,1.8-3.8,3.7-5.6,5.6c-0.3,0.3-0.4,0.8-0.4,1.2   c0.3,2.2-1.3,3.8-3.5,3.6c-0.4,0-1,0.1-1.3,0.4c-2.5,2.5-5.1,5-7.5,7.6c-0.3,0.3-0.4,0.9-0.4,1.3c0.3,2.2-1.4,3.9-3.6,3.6   c-0.4-0.1-1.1,0.1-1.4,0.4c-1.6,1.5-3.1,3.1-4.7,4.6c-0.5,0.5-0.7,0.8-0.4,1.5c0.6,1.5,0.2,2.9-0.9,4.1c-1.1,1.2-2.6,1.6-4.2,1.1   c-0.8-0.2-1.3-0.2-1.7,0.5c-0.4,0.5-0.8,0.9-1.3,1.3c-0.8,0.8-1.4,1.4-1.1,2.8c0.4,1.6-1.2,3.2-3,3.5   C24.3,80.4,23.9,80.4,23.5,80.4z"/></g><text x="0" y="115" fill="#000000" font-size="5px" font-weight="bold" font-family="'Helvetica Neue', Helvetica, Arial-Unicode, Arial, Sans-serif">Created by SoyGalem</text><text x="0" y="120" fill="#000000" font-size="5px" font-weight="bold" font-family="'Helvetica Neue', Helvetica, Arial-Unicode, Arial, Sans-serif">from the Noun Project</text></svg>